<?xml version="1.0" encoding="UTF-8"?>
<svg xmlns="http://www.w3.org/2000/svg" width="1448" height="1086" viewBox="0 0 1448 1086" role="img" aria-label="MLIR Shield">
  <defs>
    <linearGradient id="cyanBody" x1="0.18" y1="0.08" x2="0.86" y2="0.92">
      <stop offset="0%" stop-color="#2AD9FF"/>
      <stop offset="40%" stop-color="#17C7F0"/>
      <stop offset="78%" stop-color="#0FAFDC"/>
      <stop offset="100%" stop-color="#089CCB"/>
    </linearGradient>
    <linearGradient id="navyBody" x1="0.14" y1="0.08" x2="0.90" y2="0.92">
      <stop offset="0%" stop-color="#123E85"/>
      <stop offset="34%" stop-color="#0D3374"/>
      <stop offset="76%" stop-color="#082863"/>
      <stop offset="100%" stop-color="#061E52"/>
    </linearGradient>
    <linearGradient id="cyanWord" x1="0" y1="0" x2="1" y2="1">
      <stop offset="0%" stop-color="#09B8E7"/>
      <stop offset="28%" stop-color="#10D5FB"/>
      <stop offset="61%" stop-color="#00A8DA"/>
      <stop offset="100%" stop-color="#008FC8"/>
    </linearGradient>
    <linearGradient id="wordNavy" x1="0" y1="0" x2="0.35" y2="1">
      <stop offset="0%" stop-color="#0B336D"/>
      <stop offset="25%" stop-color="#051E4D"/>
      <stop offset="68%" stop-color="#082E65"/>
      <stop offset="100%" stop-color="#031A42"/>
    </linearGradient>
    <!-- Mirror-paired top highlights: both begin brighter at the outer shoulder
         and fade toward the central opening. -->
    <linearGradient id="topGlossLeft" x1="0" y1="0" x2="1" y2="0">
      <stop offset="0%" stop-color="#FFFFFF" stop-opacity="0.34"/>
      <stop offset="58%" stop-color="#FFFFFF" stop-opacity="0.20"/>
      <stop offset="85%" stop-color="#FFFFFF" stop-opacity="0.08"/>
      <stop offset="100%" stop-color="#FFFFFF" stop-opacity="0"/>
    </linearGradient>
    <linearGradient id="topGlossRight" x1="1" y1="0" x2="0" y2="0">
      <stop offset="0%" stop-color="#FFFFFF" stop-opacity="0.34"/>
      <stop offset="58%" stop-color="#FFFFFF" stop-opacity="0.20"/>
      <stop offset="85%" stop-color="#FFFFFF" stop-opacity="0.08"/>
      <stop offset="100%" stop-color="#FFFFFF" stop-opacity="0"/>
    </linearGradient>
    <filter id="shadow" x="-25%" y="-22%" width="150%" height="155%">
      <feGaussianBlur in="SourceAlpha" stdDeviation="5"/>
      <feOffset dx="0" dy="7" result="offsetblur"/>
      <feColorMatrix in="offsetblur" type="matrix"
        values="0 0 0 0 0.015
                0 0 0 0 0.06
                0 0 0 0 0.16
                0 0 0 0.18 0"/>
      <feMerge><feMergeNode/><feMergeNode in="SourceGraphic"/></feMerge>
    </filter>
    <filter id="tinyShadow" x="-15%" y="-20%" width="130%" height="145%">
      <feGaussianBlur in="SourceAlpha" stdDeviation="2.1"/>
      <feOffset dx="0" dy="3" result="offsetblur"/>
      <feColorMatrix in="offsetblur" type="matrix"
        values="0 0 0 0 0.015
                0 0 0 0 0.08
                0 0 0 0 0.18
                0 0 0 0.14 0"/>
      <feMerge><feMergeNode/><feMergeNode in="SourceGraphic"/></feMerge>
    </filter>
    <filter id="softWordmarkOffsetBlur" x="-20%" y="-20%" width="150%" height="160%">
      <feGaussianBlur stdDeviation="2.4"/>
    </filter>
    <clipPath id="leftShieldClip">
      <path d="M298 354 L161 413 L161 538 C161 573 177 597 205 620 L308 680 L308 646 L222 596 C199 578 188 557 188 531 L188 431 L298 382 Z"/>
    </clipPath>
    <clipPath id="rightShieldClip">
      <path d="M319 354 L454 413 L454 538 C454 573 439 597 411 620 L308 680 L308 646 L394 596 C417 578 428 557 428 531 L428 431 L319 382 Z"/>
    </clipPath>
    <clipPath id="mLeftClip">
      <path d="M212 440 L308 493 L308 520 L238 479 L238 535 L212 520 Z"/>
    </clipPath>
    <clipPath id="mRightClip">
      <path d="M404 440 L308 493 L308 520 L378 479 L378 535 L404 520 Z"/>
    </clipPath>
    <clipPath id="mLowerLeftClip">
      <path d="M238 479 L308 520 L308 548 L238 507 Z"/>
    </clipPath>
    <clipPath id="mLowerRightClip">
      <path d="M378 479 L308 520 L308 548 L378 507 Z"/>
    </clipPath>
  </defs>

  <rect width="1448" height="1086" fill="#FFFFFF"/>


  <g id="icon" filter="url(#shadow)" transform="translate(1.132,-9.800) scale(1.024000,1.034000)">
    <path id="shield_left"
          d="M298 354 L161 413 L161 538 C161 573 177 597 205 620 L308 680 L308 646 L222 596 C199 578 188 557 188 531 L188 431 L298 382 Z"
          fill="url(#cyanBody)"/>
    <path id="shield_right"
          d="M319 354 L454 413 L454 538 C454 573 439 597 411 620 L308 680 L308 646 L394 596 C417 578 428 557 428 531 L428 431 L319 382 Z"
          fill="url(#navyBody)"/>

    <path id="lower_rail"
          d="M215 550 L308 607 L401 550 L401 578 L308 636 L215 578 Z"
          fill="url(#navyBody)"/>

    <path id="m_left"
          d="M212 440 L308 493 L308 520 L238 479 L238 535 L212 520 Z"
          fill="url(#cyanBody)"/>
    <path id="m_right"
          d="M404 440 L308 493 L308 520 L378 479 L378 535 L404 520 Z"
          fill="url(#navyBody)"/>
    <path id="m_lower_left"
          d="M238 479 L308 520 L308 548 L238 507 Z"
          fill="url(#cyanBody)"/>
    <path id="m_lower_right"
          d="M378 479 L308 520 L308 548 L378 507 Z"
          fill="url(#navyBody)"/>

    <!-- Symmetric upper-edge highlights:
         left: outer left → center; right: outer right → center. -->
    <g clip-path="url(#leftShieldClip)">
      <path d="M194 414 L279 377" fill="none" stroke="url(#topGlossLeft)" stroke-width="7.0" stroke-linecap="round" opacity="0.88"/>
      <path d="M199 416 L274 383" fill="none" stroke="#FFFFFF" stroke-opacity="0.10" stroke-width="1.9" stroke-linecap="round"/>
    </g>
    <g clip-path="url(#rightShieldClip)">
      <path d="M337 377 L422 414" fill="none" stroke="url(#topGlossRight)" stroke-width="7.0" stroke-linecap="round" opacity="0.88"/>
      <path d="M342 383 L417 416" fill="none" stroke="#FFFFFF" stroke-opacity="0.10" stroke-width="1.9" stroke-linecap="round"/>
    </g>
    <g clip-path="url(#mLeftClip)">
      <path d="M225 446 L296 486" fill="none" stroke="#FFFFFF" stroke-opacity="0.12" stroke-width="3" stroke-linecap="round"/>
    </g>
    <g clip-path="url(#mRightClip)">
      <path d="M391 447 L320 486" fill="none" stroke="#FFFFFF" stroke-opacity="0.08" stroke-width="2.6" stroke-linecap="round"/>
    </g>
    <g clip-path="url(#mLowerLeftClip)">
      <path d="M248 487 L301 518" fill="none" stroke="#FFFFFF" stroke-opacity="0.08" stroke-width="2.6" stroke-linecap="round"/>
    </g>
    <g clip-path="url(#mLowerRightClip)">
      <path d="M368 487 L315 518" fill="none" stroke="#FFFFFF" stroke-opacity="0.06" stroke-width="2.4" stroke-linecap="round"/>
    </g>
  </g>

<g id="wordmarkShadow" opacity="0.12" filter="url(#softWordmarkOffsetBlur)">
    <g id="MLIRShadow" transform="translate(545.8,588) scale(0.06980000,-0.06900000)" fill="#0A214B">
<path d="M96 0H449V645C449 743 442 922 438 1093C487 919 537 741 568 645L786 0H1077L1291 645C1323 745 1374 932 1424 1113C1420 936 1412 747 1412 645V0H1765V1490H1232L1042 905C1014 810 969 646 932 505C895 646 849 810 820 905L628 1490H96Z" transform="translate(0,0)"/>
<path d="M96 0H1116V306H456V1490H96Z" transform="translate(1861,0)"/>
<path d="M456 1490H96V0H456Z" transform="translate(3019,0)"/>
<path d="M96 0H456V495H688L931 0H1311L1025 568C1181 649 1272 795 1272 986C1272 1295 1055 1490 710 1490H96ZM456 778V1195H685C830 1195 920 1113 920 986C920 860 830 778 686 778Z" transform="translate(3571,0)"/>
    </g>
    <g id="ShieldShadow" transform="translate(919.1,588) scale(0.065600000,-0.067000000)" fill="#0A214B">
<path d="M689 -24C1073 -24 1301 153 1301 453C1301 683 1158 814 828 880L697 906C527 941 456 986 456 1067C456 1160 551 1225 687 1225C829 1225 924 1149 934 1026H1267C1258 1331 1039 1514 682 1514C332 1514 96 1327 96 1050C96 833 245 689 536 629L689 598C868 561 945 512 945 427C945 329 844 265 692 265C520 265 415 349 410 492H67C67 163 292 -24 689 -24Z" transform="translate(0,0)"/>
<path d="M440 574C440 718 510 785 619 785C728 785 791 717 791 592V0H1135V664C1135 924 1001 1079 772 1079C617 1079 511 1009 440 893V1490H96V0H440Z" transform="translate(1368,0)"/>
<path d="M96 0H440V1056H96ZM267 1159C378 1159 457 1232 457 1333C457 1434 378 1506 267 1506C157 1506 78 1434 78 1333C78 1232 157 1159 267 1159Z" transform="translate(2599,0)"/>
<path d="M596 -24C863 -24 1076 125 1115 338H806C781 268 709 224 608 224C472 224 392 309 388 443H1123V536C1123 856 904 1080 587 1080C274 1080 52 850 52 528C52 206 272 -24 596 -24ZM390 649C405 760 480 826 596 826C711 826 787 760 802 649Z" transform="translate(3135,0)"/>
<path d="M440 1490H96V0H440Z" transform="translate(4306,0)"/>
<path d="M509 -23C648 -23 758 40 813 163H814V0H1155V1490H810V914H809C742 1026 643 1079 506 1079C238 1079 52 853 52 530C52 196 232 -23 509 -23ZM605 252C479 252 401 356 401 530C401 702 479 805 605 805C735 805 824 697 824 530C824 361 735 252 605 252Z" transform="translate(4842,0)"/>
    </g>
  </g>
<g id="wordmark" filter="url(#tinyShadow)">
    <g id="MLIR" transform="translate(534.3,577) scale(0.06980000,-0.06900000)" fill="url(#wordNavy)">
      <path d="M96 0H449V645C449 743 442 922 438 1093C487 919 537 741 568 645L786 0H1077L1291 645C1323 745 1374 932 1424 1113C1420 936 1412 747 1412 645V0H1765V1490H1232L1042 905C1014 810 969 646 932 505C895 646 849 810 820 905L628 1490H96Z" transform="translate(0,0)"/>
<path d="M96 0H1116V306H456V1490H96Z" transform="translate(1861,0)"/>
<path d="M456 1490H96V0H456Z" transform="translate(3019,0)"/>
<path d="M96 0H456V495H688L931 0H1311L1025 568C1181 649 1272 795 1272 986C1272 1295 1055 1490 710 1490H96ZM456 778V1195H685C830 1195 920 1113 920 986C920 860 830 778 686 778Z" transform="translate(3571,0)"/>
    </g>
    <g id="Shield" transform="translate(907.6,577) scale(0.065600000,-0.067000000)" fill="url(#cyanWord)">
      <path d="M689 -24C1073 -24 1301 153 1301 453C1301 683 1158 814 828 880L697 906C527 941 456 986 456 1067C456 1160 551 1225 687 1225C829 1225 924 1149 934 1026H1267C1258 1331 1039 1514 682 1514C332 1514 96 1327 96 1050C96 833 245 689 536 629L689 598C868 561 945 512 945 427C945 329 844 265 692 265C520 265 415 349 410 492H67C67 163 292 -24 689 -24Z" transform="translate(0,0)"/>
<path d="M440 574C440 718 510 785 619 785C728 785 791 717 791 592V0H1135V664C1135 924 1001 1079 772 1079C617 1079 511 1009 440 893V1490H96V0H440Z" transform="translate(1368,0)"/>
<path d="M96 0H440V1056H96ZM267 1159C378 1159 457 1232 457 1333C457 1434 378 1506 267 1506C157 1506 78 1434 78 1333C78 1232 157 1159 267 1159Z" transform="translate(2599,0)"/>
<path d="M596 -24C863 -24 1076 125 1115 338H806C781 268 709 224 608 224C472 224 392 309 388 443H1123V536C1123 856 904 1080 587 1080C274 1080 52 850 52 528C52 206 272 -24 596 -24ZM390 649C405 760 480 826 596 826C711 826 787 760 802 649Z" transform="translate(3135,0)"/>
<path d="M440 1490H96V0H440Z" transform="translate(4306,0)"/>
<path d="M509 -23C648 -23 758 40 813 163H814V0H1155V1490H810V914H809C742 1026 643 1079 506 1079C238 1079 52 853 52 530C52 196 232 -23 509 -23ZM605 252C479 252 401 356 401 530C401 702 479 805 605 805C735 805 824 697 824 530C824 361 735 252 605 252Z" transform="translate(4842,0)"/>
    </g>
  </g>
</svg>