<svg xmlns="http://www.w3.org/2000/svg" width="1400" height="420" viewBox="0 0 1400 420">
  <polygon points="336.91,277.5 220,345 103.09,277.5 103.09,142.5 220,75 336.91,142.5" fill="#f5f8fc" stroke="#152238" stroke-width="4"/>
  <polygon points="299.67,256 220,302 140.33,256 140.33,164 220,118 299.67,164" fill="none" stroke="#17b4d5" stroke-width="10"/>
  <polyline points="150,185 195,145 240,205 290,155 290,255 235,285 185,250 150,185" fill="none" stroke="#152238" stroke-width="8" stroke-linejoin="round"/>
  <line x1="175" y1="230" x2="265" y2="230" stroke="#38a871" stroke-width="9" stroke-linecap="round"/>
  <g fill="#f5a135"><circle cx="150" cy="185" r="10"/><circle cx="195" cy="145" r="10"/><circle cx="240" cy="205" r="10"/><circle cx="290" cy="155" r="10"/><circle cx="290" cy="255" r="10"/><circle cx="235" cy="285" r="10"/><circle cx="185" cy="250" r="10"/></g>
  <text x="410" y="245" font-family="Arial,Segoe UI,sans-serif" font-size="138" font-weight="700" fill="#152238">K&amp;W</text>
  <line x1="416" y1="290" x2="760" y2="290" stroke="#17b4d5" stroke-width="8" stroke-linecap="round"/>
</svg>